<svg id="f36791e7-e715-4115-bc06-6b447c5f2f9f" data-name="Layer 1" xmlns="http://www.w3.org/2000/svg" xmlns:xlink="http://www.w3.org/1999/xlink" viewBox="0 0 773.18 580.18"><defs><clipPath id="4cfbafcb-c393-4772-8424-1b36e7a0f7c0" transform="translate(-16.92 67.03)"><path d="M554.94,240.49s-1.92-21.85-4-39c-4.92-45.14-44.64-55.75-63.21-60.06,0,0,10.6-3.47,26-13.15,14.72-9.26,15-22.52,15-22.52l-2.8-33.25a36.72,36.72,0,0,0-9-18.45c-14.89-15.89-50.16-24.47-100.17-24.34-25.16.07-46.77.61-69.11,2.1l2.23-11.51-1.2-1.8c-17.42,1-64.83,2-66.83,13.92l-3.4,23.87s-2.17,5.19,9.06,5.27c11.64.07,165.54-16,202.3.21,36.77,16.7,30.45,26.9,29.12,29.15-8.67,15.23-38.3,24-58.73,27.92-62.85,11.71-140.85,6.54-141.23,20.6l-1.37,28.43s-1.47,5.9,25.89,2.53c15.8-1.95,103.94-9.91,156.41,4.21,38.42,10.34,47,47.2,47,47.2s.85,19.52-22.9,40.78c-16.89,15.12-43.3,28.79-85.52,36.85-41.86,8.68-86.93,5.58-124.43-.4-46.74-7.46-77.08-20.32-77.08-20.32l-25.63,5.56-.42,22.11s10.06,39.68,181.88,31.79S554.94,240.49,554.94,240.49Z" fill="none" clip-rule="evenodd"/></clipPath><clipPath id="2ff4e2f7-7e94-46b0-91cd-95463557e312" transform="translate(-16.92 67.03)"><path d="M321.29,141c-14.73-22.88,213.69,3.78,202.64-68.8S285.79,48.48,283.53,32.54c-1.67-11.77,64.28-13.93,64.28-13.93l-71.55-84L233.67,172.44l251.75,74.21L281.76,261.72l-38.71-2-9.1,19.63s45.58,18.07,103.18,24.82c75,8.78,203.38-9.3,211.61-83.81C563.34,91.57,331.41,156.72,321.29,141Z" fill="none" clip-rule="evenodd"/></clipPath></defs><title>H3U_Logo_SVG</title><path d="M738.93,220.86q0,27.78-8.13,49.69a101.64,101.64,0,0,1-23.27,36.88,97.39,97.39,0,0,1-36.8,22.87q-21.63,7.85-49.29,7.81-25.25,0-46-7.33a96.74,96.74,0,0,1-35.6-21.58Q525,294.95,517,273.45t-8.05-49.52V34a5.59,5.59,0,0,1,1-3.34,6.22,6.22,0,0,1,3.33-2.27A35.86,35.86,0,0,1,519.5,27a86.37,86.37,0,0,1,19.84,0,30.55,30.55,0,0,1,6.35,1.46A6.34,6.34,0,0,1,549,30.7a5.62,5.62,0,0,1,1,3.34v184.8c0,14.11,1.69,26.53,5.16,37s8.47,19.35,15,26.36A61.53,61.53,0,0,0,593.63,298q13.67,5.33,31,5.32c11.69,0,22.18-1.69,31.37-5.16a59.77,59.77,0,0,0,23.3-15.64c6.38-6.93,11.21-15.48,14.6-25.72s5.08-22.17,5.08-35.88v-187a5.45,5.45,0,0,1,1-3.26,6.09,6.09,0,0,1,3.26-2.22A35.85,35.85,0,0,1,709.32,27a66.44,66.44,0,0,1,9.76-.56,63.94,63.94,0,0,1,9.44.56,30.53,30.53,0,0,1,6,1.43,7.06,7.06,0,0,1,3.34,2.22,5,5,0,0,1,1,3.26Z" transform="translate(-16.92 67.03)" fill="#008bd1" fill-rule="evenodd"/><path d="M285.93,329.19a4.7,4.7,0,0,1-.84,3.31,6.11,6.11,0,0,1-3.31,2.26,36.76,36.76,0,0,1-6.29,1.46,65.57,65.57,0,0,1-9.61.56,66.47,66.47,0,0,1-10-.56,35.77,35.77,0,0,1-6.22-1.46,6.15,6.15,0,0,1-3.3-2.26,13.27,13.27,0,0,1-1.43-3.31V193.38h-138V329.19a14.69,14.69,0,0,1-1.46,3.31,6.16,6.16,0,0,1-3.31,2.26,33.77,33.77,0,0,1-6.21,1.46,67.73,67.73,0,0,1-9.84.56,66.83,66.83,0,0,1-9.69-.56A34.4,34.4,0,0,1,70,334.76a6.17,6.17,0,0,1-3.31-2.26,4.53,4.53,0,0,1-.8-3.31V35.46a4.53,4.53,0,0,1,.8-3.31A6.21,6.21,0,0,1,70,29.89a35,35,0,0,1,6.37-1.45,66.63,66.63,0,0,1,9.69-.56,67.54,67.54,0,0,1,9.84.56,34.33,34.33,0,0,1,6.21,1.45,6.2,6.2,0,0,1,3.31,2.26,16.62,16.62,0,0,1,1.46,3.31V158.38h138V35.46a14.79,14.79,0,0,1,1.43-3.31,6.19,6.19,0,0,1,3.3-2.26,36.4,36.4,0,0,1,6.22-1.45,66.3,66.3,0,0,1,10-.56,65.37,65.37,0,0,1,9.61.56,37.41,37.41,0,0,1,6.29,1.45,6.15,6.15,0,0,1,3.31,2.26,4.69,4.69,0,0,1,.84,3.31Z" transform="translate(-16.92 67.03)" fill="#008bd1" fill-rule="evenodd"/><path d="M554.94,240.49s-1.92-21.85-4-39c-4.92-45.14-44.64-55.75-63.21-60.06,0,0,10.6-3.47,26-13.15,14.72-9.26,15-22.52,15-22.52l-2.8-33.25a36.72,36.72,0,0,0-9-18.45c-14.89-15.89-50.16-24.47-100.17-24.34-25.16.07-46.77.61-69.11,2.1l2.23-11.51-1.2-1.8c-17.42,1-64.83,2-66.83,13.92l-3.4,23.87s-2.17,5.19,9.06,5.27c11.64.07,165.54-16,202.3.21,36.77,16.7,30.45,26.9,29.12,29.15-8.67,15.23-38.3,24-58.73,27.92-62.85,11.71-140.85,6.54-141.23,20.6l-1.37,28.43s-1.47,5.9,25.89,2.53c15.8-1.95,103.94-9.91,156.41,4.21,38.42,10.34,47,47.2,47,47.2s.85,19.52-22.9,40.78c-16.89,15.12-43.3,28.79-85.52,36.85-41.86,8.68-86.93,5.58-124.43-.4-46.74-7.46-77.08-20.32-77.08-20.32l-25.63,5.56-.42,22.11s10.06,39.68,181.88,31.79S554.94,240.49,554.94,240.49Z" transform="translate(-16.92 67.03)" fill="#6cc04a" fill-rule="evenodd"/><g clip-path="url(#4cfbafcb-c393-4772-8424-1b36e7a0f7c0)"><path d="M374.36,306.93A323.23,323.23,0,0,1,337,304.85c-57-6.67-102.91-24.68-103.36-24.86l-.69-.27L242.6,259l39.19,2,199.72-14.79L232.87,172.94l.11-.62L275.83-67l73.46,86.3-1.46,0c-.55,0-55.27,1.91-62.86,11a2.7,2.7,0,0,0-.74,2.17c.63,4.44,26.18,2.8,55.76.91C410.48,28.84,517,22,524.62,72.08a28.59,28.59,0,0,1-6,23.08c-21,26.16-89.9,30.73-140.19,34.07-29.1,1.93-54.22,3.6-56.89,8.9a2.4,2.4,0,0,0,.36,2.48c2.46,3.82,21.4,2.25,45.39.26,52.66-4.36,132.25-10.94,166.53,24.41,13,13.41,18.26,32,15.63,55.14-2,18.47-11.52,34.56-28.18,47.82C487.61,295,427.68,306.93,374.36,306.93Zm-139.47-28a461.34,461.34,0,0,0,102.31,24.5c59.58,7,141.63-3.26,183.16-36.31,16.36-13,25.66-28.79,27.66-46.88,2.58-22.75-2.55-40.92-15.25-54-33.82-34.86-113-28.32-165.4-24-26.36,2.18-43.78,3.62-46.69-.9h0a3.74,3.74,0,0,1-.44-3.87c3-6,26.11-7.55,58.06-9.67,50-3.32,118.56-7.87,139.19-33.55a27.23,27.23,0,0,0,5.73-22c-7.44-48.78-113.18-42-183.15-37.53-38.11,2.44-56.47,3.37-57.25-2.12a4.08,4.08,0,0,1,1.05-3.28c7.36-8.77,53.42-11,62.44-11.4L276.69-63.85,234.48,171.94l254.85,75.12L281.81,262.42l-38.32-2Z" transform="translate(-16.92 67.03)" fill="#8bdc65"/></g><path d="M103.88,438.49a2.55,2.55,0,0,1-.26,1.95,2.37,2.37,0,0,1-1.55,1.17,2.54,2.54,0,0,1-2-.26A2.38,2.38,0,0,1,99,439.79,16.93,16.93,0,0,0,93.3,431a17.68,17.68,0,0,0-8.9-4.16,10.54,10.54,0,0,0-8.12,2.27q-3.44,2.79-4.09,9.28a14.4,14.4,0,0,0,.33,5.65,17.15,17.15,0,0,0,2.92,5.65q2.21,3,4,4.93t5.39,5.84a15.58,15.58,0,0,1,1.69,1.69q3.77,3.9,6.1,6.82a71.75,71.75,0,0,1,5,7.27,30.38,30.38,0,0,1,3.77,9.28,36.59,36.59,0,0,1,.72,10.52A14.1,14.1,0,0,1,99,503.54a17.84,17.84,0,0,1-6.56,5.19,14.78,14.78,0,0,1-8,1.75,13.65,13.65,0,0,1-8-2.92q-10.65-8.7-8.44-31.16a2.64,2.64,0,0,1,1-1.75,2.36,2.36,0,0,1,1.88-.58,2.69,2.69,0,0,1,1.75,1,2.37,2.37,0,0,1,.58,1.88q-1.95,19.61,6.62,26.49,4.29,3.64,10.39.65a12,12,0,0,0,4.61-3.57,9.58,9.58,0,0,0,2-5,26,26,0,0,0-3-15.39,72.73,72.73,0,0,0-11.17-14.35q-.65-.78-1.95-2.08-3.64-3.63-5.52-5.78a63.43,63.43,0,0,1-4.35-5.71,22.29,22.29,0,0,1-3.37-7.08,20.26,20.26,0,0,1-.52-7.27q.9-8.7,6-12.85a14.94,14.94,0,0,1,11.88-3.25A21.17,21.17,0,0,1,96.68,427,22.29,22.29,0,0,1,103.88,438.49Z" transform="translate(-16.92 67.03)"/><path d="M110.64,423.69a2.6,2.6,0,0,1,5.19,0v7.14a20,20,0,0,1,4.68-3.25,7.16,7.16,0,0,1,5.06-.65,6.15,6.15,0,0,1,4,3.12,19,19,0,0,1,5.78-6.49,9,9,0,0,1,6.81-1.56,8.52,8.52,0,0,1,6.23,4.54,20.46,20.46,0,0,1,2.34,9.74q.26,13.63-.45,39t-.71,35.25a2.6,2.6,0,0,1-5.19,0q0-10,.72-35.25t.45-39q-.14-4.54-1.43-6.75a4.47,4.47,0,0,0-2.86-2.47,5.15,5.15,0,0,0-3.7,1.3,15,15,0,0,0-4.09,5.32,2.45,2.45,0,0,1-2.08,1.43,48.44,48.44,0,0,1,.91,11.43q-.13,2.47-.52,7.92-.26,4.68-.26,7,0,33,.78,48.56a2.85,2.85,0,0,1-.72,1.88,2.21,2.21,0,0,1-1.75.84A2.86,2.86,0,0,1,128,512a2.21,2.21,0,0,1-.84-1.75q-.78-15.71-.78-48.82,0-2.47.39-7.4.26-5.32.39-7.66.26-8.83-1.82-13.37c-.35-.69-.7-1.08-1-1.17a2.54,2.54,0,0,0-1.56.39,16.39,16.39,0,0,0-5.19,4.28,3.44,3.44,0,0,1-1.82.78q0,8.18-.52,33t-.52,38.37a2.6,2.6,0,0,1-5.19,0q0-14.15.58-42.52T110.64,423.69Z" transform="translate(-16.92 67.03)"/><path d="M161.79,438a2.6,2.6,0,0,1-5.19,0,15.74,15.74,0,0,1,4.68-11.81,19.62,19.62,0,0,1,11.3-5.45A22.13,22.13,0,0,1,185.29,423a18.66,18.66,0,0,1,9,9.8q1.82,4,2.72,15.06.78,9.22,1,22.59.52,25.84-.65,38.56a2.68,2.68,0,0,1-1,1.75,2.36,2.36,0,0,1-1.89.58,2.65,2.65,0,0,1-1.75-1,2.35,2.35,0,0,1-.58-1.88q.13-1.95.39-5.32a24.14,24.14,0,0,1-17.27,6.36q-8.7-.39-13-4.93-5.84-6.36-6-24-.14-16.23,3.76-24.28a21.35,21.35,0,0,1,7.08-8,23.24,23.24,0,0,1,9.94-4.09,21.34,21.34,0,0,1,14.54,3.11q-.78-9.48-2.08-12.46a14.21,14.21,0,0,0-6.75-7.34,16.39,16.39,0,0,0-9.61-1.62,13.93,13.93,0,0,0-8.18,3.83A11,11,0,0,0,161.79,438Zm30.38,16.49a15.22,15.22,0,0,0-14.28-5.06,17.22,17.22,0,0,0-7.73,3.12,15.94,15.94,0,0,0-5.39,6.1,33.45,33.45,0,0,0-2.34,9,85.49,85.49,0,0,0-.91,12.79q.13,15.71,4.68,20.51,2.73,3.12,9.35,3.38,9.09.39,17-8.57l.26-.26q.26-12.34,0-24.93Q192.69,461.48,192.17,454.46Z" transform="translate(-16.92 67.03)"/><path d="M205,424.86a2.6,2.6,0,0,1,5.19,0v9.35a47.19,47.19,0,0,1,3-5.58q3.76-5.71,8-7.4,5.71-2.33,11.17,2.47,4.54,3.89,6.75,12.33a128.53,128.53,0,0,1,2.34,12.85,2.68,2.68,0,0,1-.52,1.95,2.38,2.38,0,0,1-1.69,1,2.68,2.68,0,0,1-1.95-.52,2.37,2.37,0,0,1-1-1.69q-1.43-9.35-2.21-12.33-1.82-6.88-5.06-9.74T223.14,426q-2.79,1.1-5.52,5.52a36.29,36.29,0,0,0-4.35,8.83,42.48,42.48,0,0,0-2.14,8.18,2.7,2.7,0,0,1-1.17,1.82q-.78,51.94-.78,58.69a2.6,2.6,0,0,1-5.19,0q0-14,.52-42.07T205,424.86Z" transform="translate(-16.92 67.03)"/><path d="M249.43,450a2.67,2.67,0,0,1-1.75-1,2.35,2.35,0,0,1-.58-1.88,2.64,2.64,0,0,1,1-1.75,2.36,2.36,0,0,1,1.88-.58q5.71.52,12.34.78.13-12.07.13-21.68a2.6,2.6,0,0,1,5.19,0q0,9.61-.13,21.81,5.2.13,13.51.13a2.6,2.6,0,0,1,0,5.19q-8.18,0-13.63-.13-.78,48.69-.78,57.13a2.6,2.6,0,0,1-5.19,0q0-8.31.78-57.26Q255.27,450.57,249.43,450Z" transform="translate(-16.92 67.03)"/><path d="M329.15,423.69a2.6,2.6,0,0,1,5.19,0q0,10.78-.26,25.06a19.23,19.23,0,0,1,8.7-6,18.59,18.59,0,0,1,6.62-.84,12.49,12.49,0,0,1,6.36,2.34,14.79,14.79,0,0,1,4.93,5.91q4.29,8.83,4.94,28.44.26,2.73.07,15.71t-.2,13.24a2.6,2.6,0,0,1-5.19,0q0-.39.2-13.24t-.07-15.45q-.65-18.7-4.41-26.36a9.11,9.11,0,0,0-5.06-4.93,8.88,8.88,0,0,0-6.5.13,13.9,13.9,0,0,0-6.29,4.22,13,13,0,0,0-3.18,6.95,2.29,2.29,0,0,1-1.17,1.69q-.65,34.54-.65,48.17a2.6,2.6,0,0,1-5.19,0q0-14.15.58-42.52T329.15,423.69Z" transform="translate(-16.92 67.03)"/><path d="M411.6,444.34a2.63,2.63,0,0,1-2.47,3.38q-4.68,0-14.09.13T381,448a2.5,2.5,0,0,1-1.3-.39q-4.55,32.46,1.69,49.08a19.42,19.42,0,0,0,3.31,5.84,10.14,10.14,0,0,0,4.48,3.38q4.29,1.3,7.14-.39,2.6-1.43,4.54-5.58a25.64,25.64,0,0,0,1.37-3.31q.58-1.75,1.1-3.89t.85-3.57c.21-1,.47-2.25.78-3.9s.5-2.73.58-3.25a2.72,2.72,0,0,1,3.12-2,2.4,2.4,0,0,1,1.62,1.1,2.86,2.86,0,0,1,.45,1.95l-.65,3.11q-.52,2.47-.84,4t-.85,3.83a40.34,40.34,0,0,1-1.23,4.41,25.43,25.43,0,0,1-1.62,3.76q-2.6,5.59-6.62,7.92-4.8,2.86-11.3.78a13.44,13.44,0,0,1-6.75-4.8,30.53,30.53,0,0,1-4.42-7.53q-7.4-19.87-.78-58.95a27.55,27.55,0,0,1,5.06-12.4,15.56,15.56,0,0,1,9.09-6,13.58,13.58,0,0,1,9,1.36,21.92,21.92,0,0,1,8,7.34,2.49,2.49,0,0,1,1.3,1.17Q411.86,438.49,411.6,444.34Zm-5.19-1.82a17.68,17.68,0,0,0-1.43-6,4,4,0,0,1-.52-.65q-3-5.71-6.69-8.05t-6.95-1.56a10.48,10.48,0,0,0-6.17,4.22,21.44,21.44,0,0,0-3.83,9.8c-.18.87-.31,1.69-.39,2.47H381q4.55,0,13.18-.13T406.41,442.52Z" transform="translate(-16.92 67.03)"/><path d="M422.77,438a2.6,2.6,0,0,1-5.19,0,15.74,15.74,0,0,1,4.68-11.81,19.62,19.62,0,0,1,11.3-5.45A22.13,22.13,0,0,1,446.27,423a18.65,18.65,0,0,1,9,9.8q1.82,4,2.72,15.06.78,9.22,1,22.59.52,25.84-.65,38.56a2.68,2.68,0,0,1-1,1.75,2.36,2.36,0,0,1-1.89.58,2.65,2.65,0,0,1-1.75-1,2.35,2.35,0,0,1-.58-1.88q.13-1.95.39-5.32a24.14,24.14,0,0,1-17.27,6.36q-8.7-.39-13-4.93-5.84-6.36-6-24-.14-16.23,3.76-24.28a21.36,21.36,0,0,1,7.08-8,23.24,23.24,0,0,1,9.93-4.09,21.34,21.34,0,0,1,14.54,3.11q-.78-9.48-2.08-12.46a14.21,14.21,0,0,0-6.75-7.34,16.39,16.39,0,0,0-9.61-1.62,13.93,13.93,0,0,0-8.18,3.83A11,11,0,0,0,422.77,438Zm30.38,16.49a15.22,15.22,0,0,0-14.28-5.06,17.21,17.21,0,0,0-7.73,3.12,16,16,0,0,0-5.39,6.1,33.47,33.47,0,0,0-2.34,9,85.48,85.48,0,0,0-.91,12.79q.13,15.71,4.68,20.51,2.73,3.12,9.35,3.38,9.09.39,17-8.57l.26-.26q.26-12.34,0-24.93Q453.66,461.48,453.15,454.46Z" transform="translate(-16.92 67.03)"/><path d="M468,424.08a2.6,2.6,0,0,1,5.19,0q0,14.15-.59,42.52T472,509.13a2.6,2.6,0,0,1-5.19,0q0-14.15.59-42.52T468,424.08Z" transform="translate(-16.92 67.03)"/><path d="M481.07,450a2.67,2.67,0,0,1-1.75-1,2.35,2.35,0,0,1-.58-1.88,2.64,2.64,0,0,1,1-1.75,2.36,2.36,0,0,1,1.88-.58q5.71.52,12.34.78Q494,433.56,494,424a2.6,2.6,0,0,1,5.19,0q0,9.61-.13,21.81,5.2.13,13.51.13a2.6,2.6,0,0,1,0,5.19q-8.18,0-13.63-.13-.78,48.69-.78,57.13a2.6,2.6,0,0,1-5.19,0q0-8.31.78-57.26Q486.91,450.57,481.07,450Z" transform="translate(-16.92 67.03)"/><path d="M521.84,423.69a2.6,2.6,0,0,1,5.19,0q0,10.78-.26,25.06a19.23,19.23,0,0,1,8.7-6,18.59,18.59,0,0,1,6.62-.84,12.49,12.49,0,0,1,6.36,2.34,14.79,14.79,0,0,1,4.93,5.91q4.29,8.83,4.94,28.44.26,2.73.07,15.71t-.2,13.24a2.6,2.6,0,0,1-5.19,0q0-.39.2-13.24t-.07-15.45q-.65-18.7-4.41-26.36a9.11,9.11,0,0,0-5.06-4.93,8.88,8.88,0,0,0-6.5.13,13.9,13.9,0,0,0-6.29,4.22,13,13,0,0,0-3.18,6.95,2.29,2.29,0,0,1-1.17,1.69q-.65,34.54-.65,48.17a2.6,2.6,0,0,1-5.19,0q0-14.15.58-42.52T521.84,423.69Z" transform="translate(-16.92 67.03)"/><path d="M600.52,433.82a2.34,2.34,0,0,1,.2,1.95,2.58,2.58,0,0,1-1.3,1.56,2.58,2.58,0,0,1-3.57-1.17q-3-5.71-6.69-8t-6.95-1.56a10.48,10.48,0,0,0-6.17,4.22,21.39,21.39,0,0,0-3.83,9.8q-6.49,37.78.52,56.35a19.53,19.53,0,0,0,3.31,5.84,10.15,10.15,0,0,0,4.48,3.38q4.28,1.3,7.14-.39,2.59-1.43,4.54-5.58a25.05,25.05,0,0,0,1.36-3.31q.58-1.75,1.1-3.9t.84-3.57c.22-1,.47-2.25.78-3.9s.5-2.73.58-3.25a2.72,2.72,0,0,1,3.11-2,2.38,2.38,0,0,1,1.62,1.1,2.86,2.86,0,0,1,.45,1.95q-.13.65-.65,3.11t-.85,4q-.32,1.49-.84,3.83a41.55,41.55,0,0,1-1.24,4.41,25.38,25.38,0,0,1-1.62,3.76q-2.6,5.59-6.62,7.92-4.81,2.86-11.3.78a13.45,13.45,0,0,1-6.75-4.8,30.51,30.51,0,0,1-4.41-7.53q-7.4-19.87-.78-58.95a27.6,27.6,0,0,1,5.06-12.4,15.58,15.58,0,0,1,9.09-6,14.26,14.26,0,0,1,10.58,2.21Q596.88,426.81,600.52,433.82Z" transform="translate(-16.92 67.03)"/><path d="M613.11,438a2.6,2.6,0,0,1-5.19,0,15.74,15.74,0,0,1,4.68-11.81,19.62,19.62,0,0,1,11.3-5.45A22.13,22.13,0,0,1,636.61,423a18.66,18.66,0,0,1,9,9.8q1.82,4,2.72,15.06.78,9.22,1,22.59.52,25.84-.65,38.56a2.68,2.68,0,0,1-1,1.75,2.36,2.36,0,0,1-1.89.58,2.65,2.65,0,0,1-1.75-1,2.35,2.35,0,0,1-.58-1.88q.13-1.95.39-5.32a24.14,24.14,0,0,1-17.27,6.36q-8.7-.39-13-4.93-5.84-6.36-6-24-.14-16.23,3.76-24.28a21.36,21.36,0,0,1,7.08-8,23.24,23.24,0,0,1,9.94-4.09A21.34,21.34,0,0,1,643,447.32q-.78-9.48-2.08-12.46a14.21,14.21,0,0,0-6.75-7.34,16.39,16.39,0,0,0-9.61-1.62,13.93,13.93,0,0,0-8.18,3.83A11,11,0,0,0,613.11,438Zm30.38,16.49a15.22,15.22,0,0,0-14.28-5.06,17.21,17.21,0,0,0-7.73,3.12,16,16,0,0,0-5.39,6.1,33.47,33.47,0,0,0-2.34,9,85.49,85.49,0,0,0-.91,12.79q.13,15.71,4.68,20.51,2.73,3.12,9.35,3.38,9.09.39,17-8.57l.26-.26q.26-12.34,0-24.93Q644,461.48,643.49,454.46Z" transform="translate(-16.92 67.03)"/><path d="M656.35,424.86a2.6,2.6,0,0,1,5.19,0v9.35a47.25,47.25,0,0,1,3-5.58q3.76-5.71,8-7.4,5.71-2.33,11.17,2.47,4.54,3.89,6.75,12.33a128.28,128.28,0,0,1,2.34,12.85,2.68,2.68,0,0,1-.52,1.95,2.38,2.38,0,0,1-1.69,1,2.68,2.68,0,0,1-1.95-.52,2.37,2.37,0,0,1-1-1.69q-1.43-9.35-2.21-12.33-1.82-6.88-5.06-9.74T674.46,426q-2.79,1.1-5.52,5.52a36.3,36.3,0,0,0-4.35,8.83,42.48,42.48,0,0,0-2.14,8.18,2.7,2.7,0,0,1-1.17,1.82q-.78,51.94-.78,58.69a2.6,2.6,0,0,1-5.19,0q0-14,.52-42.07T656.35,424.86Z" transform="translate(-16.92 67.03)"/><path d="M738.8,444.34a2.63,2.63,0,0,1-2.47,3.38q-4.67,0-14.09.13t-14.09.13a2.5,2.5,0,0,1-1.3-.39q-4.55,32.46,1.69,49.08a19.42,19.42,0,0,0,3.31,5.84,10.14,10.14,0,0,0,4.48,3.38q4.29,1.3,7.14-.39,2.6-1.43,4.54-5.58a25.52,25.52,0,0,0,1.37-3.31q.58-1.75,1.1-3.89t.85-3.57c.21-1,.47-2.25.78-3.9s.5-2.73.58-3.25a2.72,2.72,0,0,1,3.12-2,2.4,2.4,0,0,1,1.62,1.1,2.86,2.86,0,0,1,.45,1.95l-.65,3.11q-.52,2.47-.84,4t-.85,3.83a40.44,40.44,0,0,1-1.23,4.41,25.34,25.34,0,0,1-1.62,3.76q-2.6,5.59-6.62,7.92-4.8,2.86-11.3.78A13.44,13.44,0,0,1,708,506a30.55,30.55,0,0,1-4.42-7.53q-7.4-19.87-.78-58.95a27.55,27.55,0,0,1,5.06-12.4,15.56,15.56,0,0,1,9.09-6,13.58,13.58,0,0,1,9,1.36,21.92,21.92,0,0,1,8,7.34,2.49,2.49,0,0,1,1.3,1.17Q739.05,438.49,738.8,444.34Zm-5.19-1.82a17.67,17.67,0,0,0-1.43-6,4,4,0,0,1-.52-.65q-3-5.71-6.69-8.05T718,426.29a10.48,10.48,0,0,0-6.17,4.22,21.43,21.43,0,0,0-3.83,9.8c-.18.87-.31,1.69-.39,2.47h.52q4.55,0,13.18-.13T733.6,442.52Z" transform="translate(-16.92 67.03)"/><polygon points="40.27 550.13 0 550.13 0 444.76 767.82 444.76 767.82 359.03 735.17 359.03 735.17 354.86 771.98 354.86 771.98 448.93 4.17 448.93 4.17 545.96 40.27 545.96 40.27 550.13" fill="#1f8c4b"/><path d="M771.43,55.18A18.67,18.67,0,1,1,790.1,36.52,18.69,18.69,0,0,1,771.43,55.18Zm0-35.12a16.45,16.45,0,1,0,16.45,16.45A16.47,16.47,0,0,0,771.43,20.06Z" transform="translate(-16.92 67.03)"/><path d="M777.44,47.64l-4.86-8.56H768v8.56h-3.14v-22H772c4.58,0,7.59,1.51,7.59,6.43a6.69,6.69,0,0,1-4,6.18l5.11,9.35ZM768,28.1v8.09h4.74c1.63,0,3.73-1,3.73-4.08,0-2.54-1.54-4-4.52-4Z" transform="translate(-16.92 67.03)"/></svg>